<?xml version="1.0" standalone="no"?>
<!DOCTYPE svg PUBLIC "-//W3C//DTD SVG 20010904//EN"
 "http://www.w3.org/TR/2001/REC-SVG-20010904/DTD/svg10.dtd">
<svg version="1.0" xmlns="http://www.w3.org/2000/svg"
 width="215.000000pt" height="215.000000pt" viewBox="0 0 215.000000 215.000000"
 preserveAspectRatio="xMidYMid meet">
<metadata>
Created by potrace 1.14, written by Peter Selinger 2001-2017
</metadata>
<g transform="translate(0.000000,215.000000) scale(0.100000,-0.100000)"
fill="#000000" stroke="none">
<path d="M389 2134 c0 -24 0 -861 1 -891 0 -23 1 -23 159 -23 l159 0 1 278 c0
152 0 294 1 314 l0 37 124 -3 c291 -8 423 -111 420 -326 -2 -132 -55 -224
-159 -279 l-40 -21 220 2 220 3 18 38 c69 148 70 374 2 532 -47 108 -145 208
-259 264 -137 67 -231 82 -573 88 -282 5 -293 5 -294 -13z"/>
<path d="M390 928 c-1 -4 -1 -803 0 -851 l0 -37 160 2 160 2 -3 428 c-1 235 1
429 6 429 49 7 18 47 506 -653 l143 -206 194 0 c146 -1 192 2 188 11 -2 7
-145 205 -317 442 l-313 430 -362 3 c-199 1 -362 1 -362 0z"/>
</g>
</svg>
